<?xml version="1.0" encoding="utf-8"?>
<!-- Generator: Adobe Illustrator 18.0.0, SVG Export Plug-In . SVG Version: 6.00 Build 0)  -->
<!DOCTYPE svg PUBLIC "-//W3C//DTD SVG 1.1//EN" "http://www.w3.org/Graphics/SVG/1.1/DTD/svg11.dtd">
<svg version="1.1" id="Layer_1" xmlns="http://www.w3.org/2000/svg" xmlns:xlink="http://www.w3.org/1999/xlink" x="0px" y="0px"
	 width="1400px" height="980px" viewBox="0 0 1400 980" enable-background="new 0 0 1400 980" xml:space="preserve">
<g>
	<g>
		<rect x="51" y="178.4" fill="#208A6F" width="293.1" height="293.1"/>
		<g>
			<path fill="#01435A" d="M289.8,396.4c-12-8.9-63.1-37.3-63.1-37.3l-29.2,7.7l-29.2-7.7c0,0-51.1,28.3-63.1,37.3s-19.3,75-19.3,75
				h111.6h111.6C309.1,471.5,301.8,405.4,289.8,396.4z"/>
			<path fill="#FFFFFF" d="M214.4,404.2l4.6-2.8c12.7-7.6,20.6-21.5,20.6-36.3v-1.3c-6.3-3.6-10.5-5.9-10.5-5.9l-31.6,8.3l-31.6-8.3
				c0,0-4.2,2.3-10.5,5.9v1.3c0,14.8,7.9,28.7,20.6,36.3l4.6,2.8c5.1,3,10.9,4.6,16.9,4.6C203.5,408.8,209.3,407.2,214.4,404.2z"/>
			<path fill="#E3B189" d="M197.6,348.7l-31.6-11.7v28.2c0,11.2,5.9,21.5,15.5,27.2l4.6,2.8c7.1,4.2,15.9,4.2,23,0l4.6-2.8
				c9.6-5.7,15.5-16,15.5-27.2v-28.2L197.6,348.7z"/>
			<path fill="#D8A380" d="M149.4,281.5L149.4,281.5c-5.3,0-9.5,4.3-9.5,9.5v5.2c0,2.9,0.9,5.7,2.6,7.9h0c1.4,1.9,3.2,3.3,5.4,4.2
				l2.5,1.1l10-7.4L149.4,281.5z"/>
			<path fill="#D8A380" d="M245.8,281.5L245.8,281.5c5.3,0,9.5,4.3,9.5,9.5v5.2c0,2.9-0.9,5.7-2.6,7.9l0,0c-1.4,1.9-3.2,3.3-5.4,4.2
				l-2.5,1.1l-10-7.4L245.8,281.5z"/>
			<path fill="#E3B189" d="M197.6,226.9L197.6,226.9c-26.8,0-48.5,21.7-48.5,48.5v25.5c0,16,6.1,31.5,17.2,42.9
				c4.3,4.4,9.5,8.9,15.6,12.7c9.6,6,21.8,6,31.3,0c6.1-3.8,11.3-8.2,15.6-12.7c11.2-11.5,17.2-26.9,17.2-42.9v-25.5
				C246.1,248.6,224.3,226.9,197.6,226.9L197.6,226.9z"/>
			<path fill="#9E8577" d="M197.6,226.7L197.6,226.7L197.6,226.7c-26.8,0-48.5,21.7-48.5,48.5v24l2.1-14.2c0.3-2.1,1.3-4,2.7-5.5
				c1.5-1.5,3.7-3.4,6.3-4.8c1.3-0.7,2.2-1.9,2.3-3.4c0.3-2.7,0.9-7.1,1.3-9.9c0.5-3,3.8-8.1,6.8-11.8c1.8-2.2,4.7-3,7.4-2
				c4.6,1.7,12.4,4.1,19.6,4.1c7.2,0,15-2.4,19.6-4.1c2.6-1,5.6-0.2,7.4,2c3,3.7,6.3,8.8,6.8,11.8c0.4,2.7,1,7.1,1.3,9.9
				c0.2,1.4,1.1,2.7,2.3,3.4c2.6,1.4,4.8,3.3,6.3,4.8c1.5,1.5,2.4,3.4,2.7,5.5l2.1,14.2v-24C246.1,248.4,224.3,226.7,197.6,226.7z"
				/>
			<path fill="#D8A482" d="M228.8,343.8c-4.3,4.4-9.5,8.9-15.6,12.7c-9.6,6-21.8,6-31.3,0c-2.5-1.6-4.9-3.3-7.1-5c0,0,0,0,0,0
				s10.9,18.5,27.7,19.8c9.1,0.7,19.3-2.9,26.7-6.4v-21.5C229.1,343.5,229,343.7,228.8,343.8z"/>
			<g>
				<path fill="#9E8577" d="M156,329.5c2.7,5.2,6.1,10,10.3,14.3c4.3,4.4,9.5,8.9,15.6,12.7c4.8,3,10.2,4.5,15.7,4.5v-7.1
					c-5.4,0-15.3-3.2-22.8-7.4C167.3,342.2,156.1,329.6,156,329.5z"/>
				<path fill="#9E8577" d="M220.3,346.4c-7.5,4.2-17.4,7.4-22.8,7.4v7.1c5.4,0,10.9-1.5,15.7-4.5c6.1-3.8,11.3-8.2,15.6-12.7
					c4.2-4.3,7.6-9.1,10.3-14.3C239,329.6,227.8,342.2,220.3,346.4z"/>
			</g>
		</g>
	</g>
	<g>
		<rect x="51" y="508.5" fill="#FC7606" width="293.1" height="293.1"/>
		<g>
			<path fill="#FFE019" d="M282.9,732.2c-11.1-8.3-58.4-34.5-58.4-34.5l-27,7.1l-27-7.1c0,0-47.3,26.2-58.4,34.5
				c-11.1,8.3-17.9,69.4-17.9,69.4h103.2h103.2C300.8,801.6,294,740.5,282.9,732.2z"/>
			<path fill="#E3B189" d="M293,756c-2.7-11.2-6.1-20.9-10.1-23.8c-11.1-8.3-58.4-34.5-58.4-34.5l-27,7.1l-27-7.1
				c0,0-23.8,13.2-41.6,23.8C128.9,721.6,183.2,785,293,756z"/>
			<path fill="#00181E" d="M166,696.7c1.2,0.3,11.8-4.1,11.8-4.1s1.7-15.6,1-16.1c-0.7-0.5-22.3-6.5-22.3-6.5s-2.4-3-2.8,0
				C153.3,673,166,696.7,166,696.7z"/>
			<path fill="#00181E" d="M224.7,700.2c1.2,0.3,17.8-10.4,17.8-10.4s2.8-20.6,2.2-21.1c-0.7-0.5-23.5-1.5-23.5-1.5s-2.4-3-2.8,0
				S224.7,700.2,224.7,700.2z"/>
			<path fill="#E3B189" d="M197.6,688.1l-29.3-10.9v26.1c0,10.3,5.4,19.9,14.3,25.2l4.3,2.5c6.6,3.9,14.7,3.9,21.3,0l4.3-2.5
				c8.9-5.3,14.3-14.8,14.3-25.2v-26.1L197.6,688.1z"/>
			<path fill="#D8A380" d="M153,625.9L153,625.9c-4.9,0-8.8,4-8.8,8.8v4.8c0,2.7,0.9,5.2,2.4,7.4l0,0c1.3,1.7,3,3.1,5,3.9l2.3,1
				l9.3-6.8L153,625.9z"/>
			<path fill="#D8A380" d="M242.1,625.9L242.1,625.9c4.9,0,8.8,4,8.8,8.8v4.8c0,2.7-0.9,5.2-2.4,7.4l0,0c-1.3,1.7-3,3.1-5,3.9
				l-2.3,1l-9.3-6.8L242.1,625.9z"/>
			<path fill="#E3B189" d="M197.6,575.4L197.6,575.4c-24.8,0-44.9,20.1-44.9,44.9v23.6c0,14.8,5.6,29.1,15.9,39.7
				c4,4.1,8.8,8.2,14.4,11.7c8.9,5.5,20.1,5.5,29,0c5.6-3.5,10.4-7.6,14.4-11.7c10.3-10.6,15.9-24.9,15.9-39.7v-23.6
				C242.4,595.5,222.3,575.4,197.6,575.4L197.6,575.4z"/>
			<path fill="#D8A482" d="M226.5,683.6c-4,4.1-8.8,8.2-14.4,11.7c-8.9,5.5-20.1,5.5-29,0c-2.3-1.5-4.5-3-6.6-4.6c0,0,0,0,0,0
				s10.1,17.1,25.7,18.3c8.5,0.7,17.8-4.2,24.7-7.4v-18.4C226.7,683.3,226.6,683.4,226.5,683.6z"/>
			<path fill="#01435A" d="M173.3,702.1c0,0-10.8-9.4-12.3-30.3c-1.5-21,3.8-52.1,21.9-74c0,0,21.9,28.8,46.5,29.8
				c0,0,17.3,60.6-7.6,74.5c0,0,15.8,1.3,28.1-15.9s12.3-62.4,7.6-79.1c-4.7-16.7-15.5-31.1-36-37.4c-20.5-6.3-41.6-0.5-41,6.1
				c0,0-4.4-5.1-13.8-2c-9.4,3-32.5,20-32.2,58.4C134.9,670.5,145.2,701.4,173.3,702.1z"/>
		</g>
	</g>
	<g>
		<rect x="723.9" y="508.5" fill="#BFDC38" width="293.1" height="293.1"/>
		<g>
			<path fill="#208A6F" d="M960.8,728.2c-11.8-8.8-61.8-36.5-61.8-36.5l-28.6,7.5l-28.6-7.5c0,0-50,27.7-61.8,36.5
				c-11.8,8.8-18.9,73.5-18.9,73.5h109.3h109.3C979.7,801.6,972.6,736.9,960.8,728.2z"/>
			<path fill="#FFFFFF" d="M887,735.8l4.5-2.7c12.5-7.4,20.2-21,20.2-35.5v-1.3c-6.2-3.5-10.3-5.8-10.3-5.8l-31,8.1l-31-8.1
				c0,0-4.1,2.3-10.3,5.8v1.3c0,14.5,7.7,28.1,20.2,35.5l4.5,2.7c5,3,10.7,4.5,16.5,4.5C876.3,740.3,882,738.7,887,735.8z"/>
			<path fill="#E3B189" d="M870.5,681.4l-31-11.5v27.7c0,10.9,5.8,21.1,15.2,26.6l4.5,2.7c6.9,4.1,15.6,4.1,22.5,0l4.5-2.7
				c9.4-5.6,15.2-15.7,15.2-26.6v-27.7L870.5,681.4z"/>
			<path fill="#D8A380" d="M823.3,615.6L823.3,615.6c-5.2,0-9.3,4.2-9.3,9.3v5c0,2.8,0.9,5.5,2.6,7.8l0,0c1.4,1.8,3.2,3.2,5.3,4.1
				l2.5,1.1l9.8-7.2L823.3,615.6z"/>
			<path fill="#D8A380" d="M917.7,615.6L917.7,615.6c5.2,0,9.3,4.2,9.3,9.3v5c0,2.8-0.9,5.5-2.6,7.8l0,0c-1.4,1.8-3.2,3.2-5.3,4.1
				l-2.5,1.1l-9.8-7.2L917.7,615.6z"/>
			<path fill="#E3B189" d="M870.5,562.1L870.5,562.1c-26.2,0-47.5,21.3-47.5,47.5v25c0,15.7,5.9,30.8,16.9,42.1
				c4.2,4.4,9.3,8.7,15.3,12.4c9.4,5.8,21.3,5.8,30.7,0c5.9-3.7,11-8,15.3-12.4c10.9-11.2,16.9-26.4,16.9-42.1v-25
				C918,583.4,896.7,562.1,870.5,562.1L870.5,562.1z"/>
			<path fill="#D8A482" d="M901.1,676.6c-4.2,4.4-9.3,8.7-15.3,12.4c-9.4,5.8-21.3,5.8-30.7,0c-2.5-1.5-4.8-3.2-7-4.9c0,0,0,0,0,0
				s10.6,18.1,27.2,19.4c9,0.7,18.9-2.8,26.1-6.2v-21.1C901.3,676.4,901.2,676.5,901.1,676.6z"/>
			<path fill="#01435A" d="M870.5,562.1L870.5,562.1L870.5,562.1c-26.2,0-47.5,21.3-47.5,47.5v16.9v0c0,0,4.5-19.7,6.8-28
				s5.3-12.8,9.7-16.4s12.2-5.7,18.2-6c6-0.3,12.8,5,12.8,5s6.8-5.3,12.8-5c6,0.3,13.7,2.4,18.2,6s7.4,8,9.7,16.4
				c2.3,8.3,6.8,28,6.8,28v-16.9C918,583.4,896.7,562.1,870.5,562.1z"/>
			<path fill="#01435A" d="M895.2,657.1c-1.4-3-9.5-4.3-13.7-5.6c-4.1-1.4-6.3-4-8-4.4c-1.7-0.3-3,2-3,2s-1.3-2.3-3-2
				c-1.7,0.3-3.9,3-8,4.4c-4.1,1.4-12.3,2.6-13.7,5.6c-1.4,3,0.8,5.9,1.8,7.5c1,1.6,0.7,4.1,0.7,4.1s1.5-2.9,1.1-5.7
				c-0.3-2.9,5.4-4.9,8.5-5.1c3-0.2,9.4-0.9,12.6-4.9c3.2,4,9.5,4.7,12.6,4.9c3,0.2,8.8,2.2,8.5,5.1c-0.3,2.9,1.1,5.7,1.1,5.7
				s-0.3-2.5,0.7-4.1C894.4,663,896.5,660.1,895.2,657.1z"/>
			<g>
				<path fill="#E2E2E2" d="M866.7,727c-0.5-2.7-4.1-6.9-4.1-6.9s-4.2-1.1-5.6-0.5c-0.6,0.3-2,1.8-3.6,3.8c0.4,0.3,0.8,0.5,1.2,0.8
					l4.5,2.7c2.5,1.5,5.2,2.4,8,2.8C867,728.7,866.8,727.8,866.7,727z"/>
				<path fill="#FFFFFF" d="M839.5,696c0,0,17.8,19.8,21,21c3.1,1.3,6.7,4.4,7.8,7.2c1.1,2.8,1.9,10.9,1.9,10.9l-1.7-0.2
					c0,0-1.3-5.3-1.7-8c-0.5-2.7-4.1-6.9-4.1-6.9s-4.2-1.1-5.6-0.5s-7.5,8.6-8.6,10.8c-1.1,2.2-8,18.3-8,18.3
					c-1.1-2.2-17.2-46.2-17.2-46.2s2.5-8.5,6.9-12.7c4.1-3.9,9.4-4.6,9.4-4.6V696z"/>
			</g>
			<g>
				<path fill="#E2E2E2" d="M874.2,727c0.5-2.7,4.1-6.9,4.1-6.9s4.2-1.1,5.6-0.5c0.6,0.3,2,1.8,3.6,3.8c-0.4,0.3-0.8,0.5-1.2,0.8
					l-4.5,2.7c-2.5,1.5-5.2,2.4-8,2.8C873.9,728.7,874.1,727.8,874.2,727z"/>
				<path fill="#FFFFFF" d="M901.4,696c0,0-17.8,19.8-21,21c-3.1,1.3-6.7,4.4-7.8,7.2c-1.1,2.8-1.9,10.9-1.9,10.9l1.7-0.2
					c0,0,1.3-5.3,1.7-8c0.5-2.7,4.1-6.9,4.1-6.9s4.2-1.1,5.6-0.5s7.5,8.6,8.6,10.8c1.1,2.2,8,18.3,8,18.3
					c1.1-2.2,17.2-46.2,17.2-46.2s-2.5-8.5-6.9-12.7c-4.1-3.9-9.4-4.6-9.4-4.6V696z"/>
			</g>
		</g>
	</g>
	<g>
		<rect x="723.9" y="178.4" fill="#FFE019" width="293.1" height="293.1"/>
		<g>
			<path fill="#BFDC38" d="M956.8,401.2c-11.2-8.4-59.1-34.9-59.1-34.9l-27.3,7.2l-27.3-7.2c0,0-47.8,26.5-59.1,34.9
				c-11.2,8.4-18.1,70.3-18.1,70.3h104.5h104.5C974.9,471.5,968.1,409.6,956.8,401.2z"/>
			<path fill="#E3B189" d="M922,433.7c-1-19.6,6.3-47.8,6.8-49.8c-15.5-9-31-17.6-31-17.6l-27.3,7.2l-27.3-7.2
				c0,0-15.4,8.6-30.8,17.5l0,0c0,0,7.9,29.5,6.9,49.9c0,0,33.3-3,51.4,11.9C888.6,430.7,922,433.7,922,433.7z"/>
			<path fill="#FC9D06" d="M825,301.7c0,0-9.1-16.3-4.6-35.4c4.5-19.1,20.8-29.8,37.1-32.6c16.3-2.8,41.8,4.4,39.6,11.9
				c0,0,1-3,8.1-0.7c5.7,1.9,21.6,13.6,15.2,50.2c0,0-51.1,24.3-52.8,24.7c-1.7,0.4-36.7-8-36.7-8L825,301.7z"/>
			<path fill="#E3B189" d="M870.5,356.5l-29.6-11V372c0,10.5,5.5,20.1,14.5,25.5l4.3,2.6c6.6,3.9,14.9,3.9,21.6,0l4.3-2.6
				c9-5.3,14.5-15,14.5-25.5v-26.4L870.5,356.5z"/>
			<path fill="#D8A380" d="M825.3,293.6L825.3,293.6c-4.9,0-8.9,4-8.9,8.9v4.8c0,2.7,0.9,5.3,2.5,7.4v0c1.3,1.7,3,3.1,5,4l2.4,1
				l9.4-6.9L825.3,293.6z"/>
			<path fill="#D8A380" d="M915.6,293.6L915.6,293.6c4.9,0,8.9,4,8.9,8.9v4.8c0,2.7-0.9,5.3-2.5,7.4v0c-1.3,1.7-3,3.1-5,4l-2.4,1
				l-9.4-6.9L915.6,293.6z"/>
			<path fill="#E3B189" d="M870.5,242.5L870.5,242.5c-25.1,0-45.4,20.3-45.4,45.4v23.9c0,15,5.7,29.5,16.1,40.2
				c4.1,4.2,8.9,8.3,14.6,11.8c9,5.6,20.4,5.6,29.3,0c5.7-3.5,10.5-7.7,14.6-11.8c10.5-10.7,16.1-25.2,16.1-40.2v-23.9
				C915.9,262.8,895.5,242.5,870.5,242.5L870.5,242.5z"/>
			<path fill="#D8A482" d="M899.7,351.9c-4.1,4.2-8.9,8.3-14.6,11.8c-9,5.6-20.4,5.6-29.3,0c-2.4-1.5-4.6-3.1-6.7-4.7c0,0,0,0,0,0
				s10.2,17.3,26,18.6c8.6,0.7,18.1-2.7,25-6v-20.2C900,351.7,899.8,351.8,899.7,351.9z"/>
			<path fill="#FC9D06" d="M870.5,242.5L870.5,242.5L870.5,242.5c-25.1,0-45.4,20.3-45.4,45.4v13.8c0,0,4.4-11.8,13.4-16.9
				c9-5.1,25.8-7.9,32-13.5c0,0-3.3,5.6-13.5,11.3c0,0,25.3-6.8,37.1-20.8c0,0,1.1,12.4,8.4,20s13.3,9.9,13.3,20v-13.8
				C915.9,262.8,895.5,242.5,870.5,242.5z"/>
			<path fill="#FC9D06" d="M909.5,338.4c-2.5,4.9-5.8,9.5-9.7,13.6c-0.6,0.6-1.2,1.2-1.8,1.8c1.4,10.4-1.8,22.9-10.2,34.8
				c-14.5,20.3-16.9,46.6,8.1,51.6c25,5,31.5-10.6,31.5-10.6s-14.5,8.9-16.9-3.2c-2.4-12.1,12.9-14.5,25-43
				C944.8,360.8,920.3,344.3,909.5,338.4z"/>
		</g>
	</g>
	<g>
		<rect x="387.2" y="178.4" fill="#BFDC38" width="293.1" height="293.1"/>
		<g>
			<path fill="#31505B" d="M515.8,352.6c0,0-50.6,6.5-51.6-30.1c0,0,13.3,2.9,12.6-5.4c-0.7-8.2-8.2-7.5-10-21.2s5.4-24.7,13.6-28
				c0,0-7.5-16.1,7.2-29.8c14.7-13.6,28.3-8.2,28.3-8.2s8.2-11.5,22.6-10c14.3,1.4,17.9,14.3,17.9,14.3s14-5.4,24,1.8
				c10,7.2,12.2,20.1,9.7,26.5c0,0,8.6,1.8,12.2,14c3.6,12.2-2.2,24.4-6.8,29.4c-4.7,5-6.4,25.5,7.9,19.7c0,0,2.5,31.9-52.8,25.8
				L515.8,352.6z"/>
			<path fill="#FC7301" d="M619.1,402.1c-11.1-8.3-58.4-34.5-58.4-34.5l-27,7.1l-27-7.1c0,0-47.3,26.2-58.4,34.5
				c-11.1,8.3-17.9,69.4-17.9,69.4h103.2H637C637,471.5,630.2,410.3,619.1,402.1z"/>
			<path fill="#D8A380" d="M489.2,295.8L489.2,295.8c-4.9,0-8.8,4-8.8,8.8v4.8c0,2.7,0.9,5.2,2.4,7.4l0,0c1.3,1.7,3,3.1,5,3.9l2.3,1
				l9.3-6.8L489.2,295.8z"/>
			<path fill="#D8A380" d="M578.3,295.8L578.3,295.8c4.9,0,8.8,4,8.8,8.8v4.8c0,2.7-0.9,5.2-2.4,7.4h0c-1.3,1.7-3,3.1-5,3.9l-2.3,1
				l-9.3-6.8L578.3,295.8z"/>
			<path fill="#E3B189" d="M533.8,245.2L533.8,245.2c-24.8,0-44.9,20.1-44.9,44.9v23.6c0,14.8,5.6,29.1,15.9,39.7
				c4,4.1,8.8,8.2,14.4,11.7c8.9,5.5,20.1,5.5,29,0c5.6-3.5,10.4-7.6,14.4-11.7c10.3-10.6,15.9-24.9,15.9-39.7v-23.6
				C578.6,265.3,558.5,245.2,533.8,245.2L533.8,245.2z"/>
			<path fill="#31505B" d="M533.8,245.2L533.8,245.2L533.8,245.2c-24.8,0-44.9,20.1-44.9,44.9v13.6c0,0,4.3-11.7,13.2-16.7
				c8.9-5,25.5-7.8,31.6-13.3c0,0-3.3,5.6-13.3,11.1c0,0,25-6.7,36.7-20.6c0,0,1.1,12.2,8.3,19.7c7.2,7.5,13.1,9.8,13.1,19.7v-13.6
				C578.6,265.3,558.5,245.2,533.8,245.2z"/>
			<path fill="#E3B189" d="M563,368.9v4.3c0,10.3-5.4,19.9-14.3,25.2l-4.3,2.5c-6.6,3.9-14.7,3.9-21.3,0l-4.3-2.5
				c-8.9-5.3-14.3-14.8-14.3-25.2v-4.3c-6.2,3.5-23.8,13.3-38.1,21.8c0,0,28.3,31.4,67.4,31.4h0c39.1,0,67.4-31.4,67.4-31.4v0
				C586.9,382.2,569.2,372.3,563,368.9z"/>
			<path fill="#E3B189" d="M533.8,357.9L504.5,347v26.1c0,10.3,5.4,19.9,14.3,25.2l4.3,2.5c6.6,3.9,14.7,3.9,21.3,0l4.3-2.5
				c8.9-5.3,14.3-14.8,14.3-25.2V347L533.8,357.9z"/>
			<path fill="#D8A482" d="M562.7,353.4c-4,4.1-8.8,8.2-14.4,11.7c-8.9,5.5-20.1,5.5-29,0c-2.3-1.5-4.5-3-6.6-4.6c0,0,0,0,0,0
				s9.6,13.7,25.2,15c8.5,0.7,18.3-3.3,25.2-6.5V353C562.9,353.1,562.8,353.3,562.7,353.4z"/>
			<path fill="#31505B" d="M482.6,281.5l6.5,14.3c0,0,10.2-17.9,10.2-17.9c0,0,16.3-16,18.1-16c1.8,0,20.5-3.2,23.3-3.2
				s13.6,0,13.6,0l6.8,3.2l14,19.5l3.2,14.3l8.8-9.4c0,0-8.6-24.8-9.5-26c-0.9-1.2-22-19.9-22-19.9s-18.7-4-20.7-4.4
				s-6.8-2.8-11.6,0c-4.8,2.8-8.1,4.4-10.6,6.4c-2.5,2-6.1,3.6-10.9,7.2s-7.2,7.2-8.8,10C491.4,262.3,482.6,281.5,482.6,281.5z"/>
		</g>
	</g>
	<g>
		<rect x="1055.9" y="178.4" fill="#FC7606" width="293.1" height="293.1"/>
		<g>
			<path fill="#D8A380" d="M1155.5,286.3L1155.5,286.3c-5.1,0-9.3,4.2-9.3,9.3v5c0,2.8,0.9,5.5,2.6,7.7l0,0c1.4,1.8,3.2,3.2,5.2,4.1
				l2.5,1.1l9.8-7.2L1155.5,286.3z"/>
			<path fill="#D8A380" d="M1249.4,286.3L1249.4,286.3c5.1,0,9.3,4.2,9.3,9.3v5c0,2.8-0.9,5.5-2.6,7.7l0,0c-1.4,1.8-3.2,3.2-5.2,4.1
				l-2.5,1.1l-9.8-7.2L1249.4,286.3z"/>
			<path fill="#7A6459" d="M1202.8,226L1202.8,226c-0.1,0-0.1,0-0.2,0c-0.1,0-0.1,0-0.2,0v0c-36.2,0.2-52.4,26-51.9,41.9
				c0.5,15.9,4.6,26.1,4.6,26.1h47.3h0.3h47.3c0,0,4.1-10.1,4.6-26.1C1255.2,251.9,1239,226.1,1202.8,226z"/>
			<path fill="#00A99D" d="M1292.4,398.3c-11.7-8.7-61.5-36.3-61.5-36.3l-28.4,7.5L1174,362c0,0-49.8,27.6-61.5,36.3
				c-11.7,8.7-18.8,73.2-18.8,73.2h108.8h108.8C1311.2,471.5,1304.1,407,1292.4,398.3z"/>
			<path fill="#00A99D" d="M1218.9,405.9l4.5-2.7c12.4-7.4,20.1-20.9,20.1-35.3v-1.3c-6.2-3.5-10.3-5.7-10.3-5.7l-30.8,8.1
				l-30.8-8.1c0,0-4.1,2.3-10.3,5.7v1.3c0,14.4,7.7,28,20.1,35.3l4.5,2.7c5,3,10.7,4.5,16.5,4.5
				C1208.2,410.4,1213.9,408.8,1218.9,405.9z"/>
			<path fill="#E3B189" d="M1202.4,351.8l-30.8-11.4v27.5c0,10.9,5.7,21,15.1,26.5l4.5,2.7c6.9,4.1,15.5,4.1,22.4,0l4.5-2.7
				c9.4-5.6,15.1-15.6,15.1-26.5v-27.5L1202.4,351.8z"/>
			<path fill="#E3B189" d="M1202.4,233L1202.4,233c-26.1,0-47.3,21.2-47.3,47.3v24.8c0,15.6,5.9,30.7,16.8,41.9
				c4.2,4.3,9.3,8.7,15.2,12.3c9.3,5.8,21.2,5.8,30.5,0c5.9-3.7,11-8,15.2-12.3c10.9-11.2,16.8-26.3,16.8-41.9v-24.8
				C1249.7,254.2,1228.6,233,1202.4,233L1202.4,233z"/>
			<path fill="#D8A482" d="M1232.9,347c-4.2,4.3-9.3,8.7-15.2,12.3c-9.3,5.8-21.2,5.8-30.5,0c-2.5-1.5-4.8-3.2-6.9-4.9c0,0,0,0,0,0
				s10.6,18,27.1,19.3c8.9,0.7,18.8-2.8,26-6.2v-21C1233.2,346.7,1233,346.9,1232.9,347z"/>
			<path fill="#00A99D" d="M1198.7,397.2c-0.5-2.6-4-6.9-4-6.9s-4.2-1.1-5.6-0.5c-0.6,0.3-2,1.8-3.6,3.7c0.4,0.3,0.8,0.5,1.2,0.8
				l4.5,2.7c2.5,1.5,5.2,2.4,8,2.8C1199,398.9,1198.8,397.9,1198.7,397.2z"/>
			<path fill="#FFFFFF" d="M1171.6,366.3c0,0,17.7,19.7,20.9,20.9c3.1,1.2,6.7,4.4,7.8,7.2c1.1,2.8,1.9,10.9,1.9,10.9l-1.7-0.2
				c0,0-1.2-5.3-1.7-7.9c-0.5-2.6-4-6.9-4-6.9s-4.2-1.1-5.6-0.5c-1.4,0.6-7.5,8.6-8.6,10.7c-1.1,2.2-7.9,18.2-7.9,18.2
				c-1.1-2.2-17.1-45.9-17.1-45.9s2.4-8.4,6.9-12.6c4.1-3.9,9.3-4.6,9.3-4.6V366.3z"/>
			<path fill="#00A99D" d="M1206.2,397.2c0.5-2.6,4-6.9,4-6.9s4.2-1.1,5.6-0.5c0.6,0.3,2,1.8,3.6,3.7c-0.4,0.3-0.8,0.5-1.2,0.8
				l-4.5,2.7c-2.5,1.5-5.2,2.4-8,2.8C1205.9,398.9,1206.1,397.9,1206.2,397.2z"/>
			<path fill="#FFFFFF" d="M1233.3,366.3c0,0-17.7,19.7-20.9,20.9c-3.1,1.2-6.7,4.4-7.8,7.2s-1.9,10.9-1.9,10.9l1.7-0.2
				c0,0,1.2-5.3,1.7-7.9s4-6.9,4-6.9s4.2-1.1,5.6-0.5c1.4,0.6,7.5,8.6,8.6,10.7c1.1,2.2,7.9,18.2,7.9,18.2
				c1.1-2.2,17.1-45.9,17.1-45.9s-2.4-8.4-6.9-12.6c-4.1-3.9-9.3-4.6-9.3-4.6V366.3z"/>
			<path fill="#7A6459" d="M1202.4,233L1202.4,233L1202.4,233c-26.1,0-47.3,21.2-47.3,47.3v13.6v0l1.7-2.1c2.9-3.6,5-7.8,6-12.4
				l3.5-15.5c2.7-11.8,15.7-18.1,26.6-12.8v0c6.2,3,13.4,3,19.6,0v0c10.9-5.3,23.9,1,26.6,12.8l3.5,15.5c1,4.5,3.1,8.8,6,12.4
				l1.1,1.3v-12.8C1249.7,254.2,1228.6,233,1202.4,233z"/>
			<path fill="#7A6459" d="M1156.2,282.1l-3.3-4.2l1.7-14.5l6.1-12.7l7.1-8.8l9-6.1l18.1-6.3l24.8,3.4l16.2,6l13.9,14.9l1.9,11.3
				v10.5l-1.9,6.3c0,0-2.3-1.1-2.7-2.5c-0.4-1.5-5.9-21-5.9-21l-8-9.5l-8.6-4c0,0-10.3-1.5-11.3-1.7c-1.1-0.2-9.7,0-10.7,0
				c-1.1,0-8.6,0.6-9.5,0.6c-0.8,0-6.7,0.8-8.4,1.3c-1.7,0.4-9.5,2.3-10.3,2.7c-0.8,0.4-4.2,1.1-5,1.7c-0.8,0.6-4.8,10.2-4.8,10.2
				s-1.7,4.7-2.5,6.8c-0.8,2.1-2.5,6.5-3.2,8.4C1158.1,277.1,1156.2,282.1,1156.2,282.1z"/>
			<path fill="#7A6459" d="M1249.1,313.5l-12.8,11.7c-1.5,1.4-2.8,3.1-3.6,5l-5.2,11.4c-0.4,0.8-1.3,1.3-2.2,1.2
				c-4.1-0.7-15.5-2.4-22.5-2.4s-18.3,1.7-22.5,2.4c-0.9,0.1-1.8-0.3-2.2-1.2l-5.2-11.4c-0.9-1.9-2.1-3.6-3.6-5l-12.8-11.7
				c0,0-0.2,0.2-0.7,0.4c1.8,12.4,7.3,24,16.2,33c4.2,4.3,9.3,8.7,15.2,12.3c9.4,5.8,21.2,5.8,30.6,0c5.9-3.7,11-8,15.2-12.3
				C1241.8,337.9,1247.4,326.1,1249.1,313.5C1249.1,313.6,1249.1,313.5,1249.1,313.5z"/>
		</g>
	</g>
	<g>
		<rect x="1055.9" y="508.5" fill="#208A6F" width="293.1" height="293.1"/>
		<g>
			<path fill="#E5D220" d="M1255.8,639.5c-3,0.8-21,8-21,8s-15.7,28.3-16.6,28.6c-0.9,0.3-6,19.2-5.2,20s9.7,13,12.8,16.4
				c3.1,3.4,16,5.1,23.7,4.2s11-1.8,11-1.8l2.8-53.6L1255.8,639.5z"/>
			<path fill="#E5D220" d="M1173.5,683.6c-9.5-9.7-15-22.6-15.8-36c-1.4,3.1-2.7,5.7-3.2,7.8c-1.2,5,4.7,8.6,5.7,14.4
				c1,5.7-3.8,11.5-1.1,19.7c2.7,8.3,2.8,9.7,0.9,15.8c-0.4,1.3-0.7,2.6-0.8,3.9h22.1c0,0,2.1-7.6,4-15.5
				C1180.9,690.5,1176.9,687,1173.5,683.6z"/>
			<path fill="#FC7301" d="M1287.8,732.2c-11.1-8.3-58.4-34.5-58.4-34.5l-27,7.1l-27-7.1c0,0-47.3,26.2-58.4,34.5
				c-11.1,8.3-17.9,69.4-17.9,69.4h103.2h103.2C1305.6,801.6,1298.9,740.5,1287.8,732.2z"/>
			<path fill="#E3B189" d="M1202.4,688.1l-29.3-10.9v26.1c0,10.3,5.4,19.9,14.3,25.2l4.3,2.5c6.6,3.9,14.7,3.9,21.3,0l4.3-2.5
				c8.9-5.3,14.3-14.8,14.3-25.2v-26.1L1202.4,688.1z"/>
			<path fill="#D8A380" d="M1157.9,625.9L1157.9,625.9c-4.9,0-8.8,4-8.8,8.8v4.8c0,2.7,0.9,5.2,2.4,7.4l0,0c1.3,1.7,3,3.1,5,3.9
				l2.3,1l9.3-6.8L1157.9,625.9z"/>
			<path fill="#D8A380" d="M1247,625.9L1247,625.9c4.9,0,8.8,4,8.8,8.8v4.8c0,2.7-0.9,5.2-2.4,7.4l0,0c-1.3,1.7-3,3.1-5,3.9l-2.3,1
				l-9.3-6.8L1247,625.9z"/>
			<path fill="#E3B189" d="M1202.4,575.4L1202.4,575.4c-24.8,0-44.9,20.1-44.9,44.9v23.6c0,14.8,5.6,29.1,15.9,39.7
				c4,4.1,8.8,8.2,14.4,11.7c8.9,5.5,20.1,5.5,29,0c5.6-3.5,10.4-7.6,14.4-11.7c10.3-10.6,15.9-24.9,15.9-39.7v-23.6
				C1247.3,595.5,1227.2,575.4,1202.4,575.4L1202.4,575.4z"/>
			<path fill="#D8A482" d="M1231.4,683.6c-4,4.1-8.8,8.2-14.4,11.7c-8.9,5.5-20.1,5.5-29,0c-2.3-1.5-4.5-3-6.6-4.6c0,0,0,0,0,0
				s10.1,13.7,25.7,15c8.5,0.7,17.8-3.3,24.7-6.5v-15.9C1231.6,683.3,1231.5,683.4,1231.4,683.6z"/>
			<path fill="#FCEE21" d="M1159.6,706.7c0.1-0.5,0.2-1,0.4-1.5c2-6.1,1.8-7.5-0.9-15.8c-2.7-8.3,2.1-14,1.1-19.7
				c-1-5.7-6.9-9.3-5.7-14.4s7-12.6,6.8-22.6c-0.1-10,19.6-9.7,14.1-28.3c0,0,12-3.1,15.1-13.4c0,0,10.1-1.4,16,6.1
				c5.9,7.5,5.1,0.9,10.7,5.2c8.1,6.2,1.9,9.9,7.4,13.2c5.5,3.2,11,5,12.6,8.6s3.5,14.4,10.3,17.2c6.7,2.9-1.2,13.3,0,18.7
				c1.2,5.4,7.5,7.5,5.9,13.6c-1.6,6.1-5.1,10.8-2.4,19.4c2,6.3,3.8,12.7,2.1,18.1c6.3,3.6,12.9,7.4,18.8,11
				c0.2-7.1-2.5-11.7-3-15.7c-0.5-4.5,1.8-7.4,2.7-14.7c0.8-7.4-4.3-10.8-4.5-15s5-7.1,4.5-15.8c-0.5-8.7-7.4-14.2-8.2-16.9
				c-0.8-2.6,0.8-6.3,1.1-15.8c0.3-9.5-9-12.6-9-12.6s2.1-4.5,0-15c-2.1-10.5-14.7-15-14.7-15s-0.5-7.6-8.2-14S1215,569,1215,569
				c-4.7-6.1-11.6-9.7-18.7-8.2c-7.1,1.6-12.4,10.5-12.4,10.5s-4.2-6.6-15.3,0c-11.1,6.6-9,17.1-9,17.1s-10.3,0.8-12.1,12.9
				c-1.8,12.1,4.2,12.1,0,15.5c-4.2,3.4-8.7,9.5-9.7,17.4c-1.1,7.9,2.6,14.2,2.1,16.9c-0.5,2.6-6.3,3.7-5.5,15.3
				c0.8,11.6,4.5,10.5,3.9,15.8s-4.5,7.9-5.3,14c-0.5,4.2,0,17.7,0.4,25.6C1141.9,716.8,1151.6,711.2,1159.6,706.7z"/>
			<path fill="#E3B189" d="M1231.7,699v4.3c0,10.3-5.4,19.9-14.3,25.2l-4.3,2.5c-6.6,3.9-14.7,3.9-21.3,0l-4.3-2.5
				c-8.9-5.3-14.3-14.8-14.3-25.2V699c-5.3,2.9-18.7,10.5-31.4,17.9v0c0,0,26.4,21.2,60.7,21.2s60.7-21.2,60.7-21.2l0,0
				C1250.5,709.5,1237,702,1231.7,699z"/>
		</g>
	</g>
	<g>
		<rect x="387.2" y="508.5" fill="#208A6F" width="293.1" height="293.1"/>
		<g>
			<path fill="#FC7301" d="M585.5,603.7c2.2-18.8-12.9-28.7-20.8-32.3s-17.4,1.4-17.4,1.4c-6.7-12.1-23.6-11.6-36.7-7.3
				c-0.4,0.1-20.7,8.5-27.5,30.2c-1,3.2-1.8,6.4-2.7,9.6c-3.6,13-3.3,34.4,0.7,45.7c4,11.2,18.2,26.1,18.2,26.1l68.8-0.2
				c15.9-13.2,21.6-41.9,21.6-53.8C589.8,611.2,585.5,603.7,585.5,603.7z"/>
			<path fill="#BFDC38" d="M619.1,732.2c-11.1-8.3-58.4-34.5-58.4-34.5l-27,7.1l-27-7.1c0,0-47.3,26.2-58.4,34.5
				c-11.1,8.3-17.9,69.4-17.9,69.4h103.2H637C637,801.6,630.2,740.5,619.1,732.2z"/>
			<path fill="#E3B189" d="M533.8,688.1l-29.3-10.9v26.1c0,10.3,5.4,19.9,14.3,25.2l4.3,2.5c6.6,3.9,14.7,3.9,21.3,0l4.3-2.5
				c8.9-5.3,14.3-14.8,14.3-25.2v-26.1L533.8,688.1z"/>
			<path fill="#D8A380" d="M489.2,625.9L489.2,625.9c-4.9,0-8.8,4-8.8,8.8v4.8c0,2.7,0.9,5.2,2.4,7.4l0,0c1.3,1.7,3,3.1,5,3.9l2.3,1
				l9.3-6.8L489.2,625.9z"/>
			<path fill="#D8A380" d="M578.3,625.9L578.3,625.9c4.9,0,8.8,4,8.8,8.8v4.8c0,2.7-0.9,5.2-2.4,7.4l0,0c-1.3,1.7-3,3.1-5,3.9
				l-2.3,1l-9.3-6.8L578.3,625.9z"/>
			<path fill="#E3B189" d="M533.8,575.4L533.8,575.4c-24.8,0-44.9,20.1-44.9,44.9v23.6c0,14.8,5.6,29.1,15.9,39.7
				c4,4.1,8.8,8.2,14.4,11.7c8.9,5.5,20.1,5.5,29,0c5.6-3.5,10.4-7.6,14.4-11.7c10.3-10.6,15.9-24.9,15.9-39.7v-23.6
				C578.6,595.5,558.5,575.4,533.8,575.4L533.8,575.4z"/>
			<path fill="#E3B189" d="M580.1,708.7c-10.8-6.1-19.4-10.9-19.4-10.9l-27,7.1l-27-7.1c0,0-47.3,26.2-58.4,34.5
				c-2.9,2.1-5.4,7.8-7.7,15c16.1,5,43.5,10.6,74.5,4.7C553.8,744.7,573.4,719.5,580.1,708.7z"/>
			<path fill="#FC7301" d="M578.6,629.4v-9.1c0-24.8-20.1-44.9-44.9-44.9l0,0h0c-24.8,0-44.9,20.1-44.9,44.9v13.6
				c0,0,1.5-13.7,26.3-21.9c24.8-8.2,26.2-3.7,42-17.6c0,0,0.8,13.1,11,22.3c10.2,9.2,10.1,13,10.1,13L578.6,629.4z"/>
			<path fill="#FC7301" d="M527.2,562.8c0,0,11.3-1.6,21.3,6.9c0,0,11.9-2.9,20.6,4c8.7,6.9-27.9,15.3-27.9,15.3s-10.3,5.1-11.3,1.5
				S527.2,562.8,527.2,562.8z"/>
			<path fill="#FC7301" d="M548.5,569.7c0,0,0.2-1.5,5.9-2.2s18.6,4.5,24.2,14c5.6,9.5-8.2,12.9-8.2,12.9l-12.6-6.1L548.5,569.7z"/>
			<path fill="#D8A482" d="M562.7,683.6c-4,4.1-8.8,8.2-14.4,11.7c-8.9,5.5-20.1,5.5-29,0c-2.3-1.5-4.5-3-6.6-4.6c0,0,0,0,0,0
				s10.1,13.3,25.7,14.5c8.5,0.7,17.8-2.9,24.7-6.1v-15.9C562.9,683.3,562.8,683.4,562.7,683.6z"/>
		</g>
	</g>
</g>
</svg>
